<?xml version="1.0" encoding="UTF-8"?>
<svg id="Layer_1" data-name="Layer 1" xmlns="http://www.w3.org/2000/svg" viewBox="0 0 6885.24 2076.73">
  <defs>
    <style>
      .cls-1 {
        fill: #359a46;
      }

      .cls-1, .cls-2, .cls-3 {
        stroke-width: 0px;
      }

      .cls-2 {
        fill: #ba9d30;
      }

      .cls-3 {
        fill: #ffc809;
      }
    </style>
  </defs>
  <g id="TMX">
    <rect class="cls-2" x="2186.46" y="333.2" width="1017.96" height="128.32"/>
    <polygon class="cls-1" points="2186.46 624.05 2543.09 624.05 2543.09 1717.3 2847.79 1717.3 2847.79 624.05 3204.41 624.05 3204.41 511.14 2186.46 511.14 2186.46 624.05"/>
    <polygon class="cls-2" points="4376.5 461.52 4320.66 338.12 4255.37 461.52 4376.5 461.52"/>
    <polygon class="cls-1" points="4944.63 1717.3 4398.95 511.14 4229.13 511.14 3919.57 1096.26 3620.2 511.14 3443.85 511.14 2898.18 1717.3 3204.42 1717.3 3522.82 1013.5 3919.57 1676.25 4324.13 1022.7 4638.37 1717.3 4944.63 1717.3"/>
    <polygon class="cls-2" points="3529.17 333.2 3524.35 333.2 3466.31 461.52 3594.81 461.52 3529.17 333.2"/>
    <polygon class="cls-1" points="5565.88 511.13 5444.72 707.96 5323.57 511.13 4973.98 511.13 5269.94 991.91 4823.4 1717.29 5172.97 1717.29 5444.72 1275.84 5716.48 1717.29 6066.04 1717.29 5619.5 991.91 5915.46 511.13 5565.88 511.13"/>
    <polygon class="cls-2" points="6024.98 333.2 5675.42 333.2 5596.42 461.52 5946 461.52 6024.98 333.2"/>
    <polygon class="cls-2" points="5214.03 333.2 4864.47 333.2 4943.45 461.52 5293.02 461.52 5214.03 333.2"/>
    <polygon class="cls-1" points="2816.7 1975.35 2789.75 1975.35 2789.75 1964.72 2854.98 1964.72 2854.98 1975.35 2828.04 1975.35 2828.04 2048.37 2816.7 2048.37 2816.7 1975.35"/>
    <path class="cls-1" d="M2895.86,1999.22c2.99-2.75,6.46-4.83,10.41-6.21,3.93-1.38,7.87-2.06,11.8-2.06s7.62.51,10.58,1.53c2.96,1.02,5.37,2.4,7.28,4.13,1.89,1.74,3.28,3.72,4.19,5.97.91,2.24,1.36,4.59,1.36,7.02v28.59c0,1.99.03,3.79.12,5.44.08,1.65.2,3.23.36,4.73h-9.46c-.23-2.84-.36-5.68-.36-8.5h-.24c-2.34,3.62-5.15,6.17-8.38,7.67s-6.98,2.25-11.23,2.25c-2.6,0-5.08-.36-7.43-1.05-2.38-.71-4.43-1.79-6.22-3.2-1.77-1.41-3.16-3.16-4.19-5.26-1.02-2.09-1.54-4.51-1.54-7.26,0-3.62.81-6.65,2.42-9.1,1.62-2.45,3.83-4.44,6.62-5.97,2.81-1.53,6.07-2.64,9.82-3.3,3.74-.68,7.74-1,11.99-1h7.81v-2.38c0-1.41-.29-2.82-.84-4.25-.56-1.41-1.38-2.69-2.48-3.83-1.1-1.16-2.48-2.06-4.13-2.72-1.65-.66-3.63-1-5.9-1-2.06,0-3.86.19-5.39.6-1.54.39-2.93.87-4.2,1.46-1.26.59-2.38,1.29-3.42,2.07-1.02.78-2.01,1.53-2.96,2.24l-6.38-6.61ZM2925.88,2021.43c-2.52,0-5.11.14-7.74.41-2.64.29-5.06.82-7.22,1.6-2.16.8-3.93,1.89-5.31,3.3-1.38,1.43-2.08,3.23-2.08,5.44,0,3.23,1.1,5.54,3.26,6.97,2.16,1.41,5.1,2.13,8.81,2.13,2.89,0,5.39-.49,7.42-1.48,2.06-.99,3.71-2.26,4.97-3.84,1.25-1.56,2.16-3.32,2.72-5.25.55-1.92.84-3.84.84-5.73v-3.54h-5.68Z"/>
    <path class="cls-1" d="M3001.38,1992.37h10.63v8.62h.23c1.35-2.99,3.65-5.42,6.98-7.26,3.3-1.85,7.13-2.77,11.46-2.77,2.67,0,5.26.41,7.74,1.22,2.47.83,4.64,2.11,6.49,3.84,1.86,1.73,3.34,3.96,4.43,6.68,1.12,2.72,1.67,5.94,1.67,9.63v36.04h-10.65v-33.08c0-2.6-.36-4.83-1.08-6.68-.69-1.85-1.63-3.35-2.82-4.49-1.18-1.14-2.54-1.97-4.09-2.48-1.53-.51-3.11-.77-4.77-.77-2.22,0-4.25.36-6.15,1.05-1.9.71-3.54,1.84-4.97,3.39-1.41,1.53-2.52,3.47-3.31,5.83-.78,2.38-1.17,5.17-1.17,8.4v28.83h-10.63v-56.01Z"/>
    <polygon class="cls-1" points="3107.61 2038.8 3139.39 2001.59 3108.66 2001.59 3108.66 1992.37 3152.39 1992.37 3152.39 2001.83 3120.37 2039.16 3154.04 2039.16 3154.04 2048.38 3107.61 2048.38 3107.61 2038.8"/>
    <path class="cls-1" d="M3210.88,1999.22c2.99-2.75,6.46-4.83,10.41-6.21,3.93-1.38,7.87-2.06,11.8-2.06s7.62.51,10.58,1.53c2.96,1.02,5.37,2.4,7.28,4.13,1.89,1.74,3.28,3.72,4.19,5.97.91,2.24,1.36,4.59,1.36,7.02v28.59c0,1.99.03,3.79.12,5.44.08,1.65.2,3.23.36,4.73h-9.46c-.23-2.84-.36-5.68-.36-8.5h-.24c-2.34,3.62-5.15,6.17-8.38,7.67-3.23,1.5-6.98,2.25-11.23,2.25-2.6,0-5.08-.36-7.43-1.05-2.38-.71-4.43-1.79-6.22-3.2-1.77-1.41-3.16-3.16-4.19-5.26-1.02-2.09-1.54-4.51-1.54-7.26,0-3.62.81-6.65,2.42-9.1,1.62-2.45,3.83-4.44,6.62-5.97,2.81-1.53,6.07-2.64,9.82-3.3,3.74-.68,7.74-1,11.99-1h7.81v-2.38c0-1.41-.29-2.82-.84-4.25-.56-1.41-1.38-2.69-2.48-3.83-1.1-1.16-2.48-2.06-4.13-2.72-1.65-.66-3.63-1-5.9-1-2.06,0-3.86.19-5.39.6-1.54.39-2.93.87-4.2,1.46-1.26.59-2.38,1.29-3.42,2.07-1.02.78-2.01,1.53-2.96,2.24l-6.38-6.61ZM3240.9,2021.43c-2.52,0-5.11.14-7.74.41-2.64.29-5.06.82-7.22,1.6-2.16.8-3.93,1.89-5.31,3.3-1.38,1.43-2.08,3.23-2.08,5.44,0,3.23,1.1,5.54,3.26,6.97,2.16,1.41,5.1,2.13,8.81,2.13,2.89,0,5.39-.49,7.42-1.48,2.06-.99,3.71-2.26,4.97-3.84,1.25-1.56,2.16-3.32,2.72-5.25.55-1.92.84-3.84.84-5.73v-3.54h-5.68Z"/>
    <path class="cls-1" d="M3316.4,1992.37h10.63v8.62h.23c1.35-2.99,3.65-5.42,6.98-7.26,3.3-1.85,7.13-2.77,11.46-2.77,2.67,0,5.26.41,7.74,1.22,2.47.83,4.64,2.11,6.49,3.84,1.86,1.73,3.34,3.96,4.43,6.68,1.12,2.72,1.67,5.94,1.67,9.63v36.04h-10.65v-33.08c0-2.6-.36-4.83-1.08-6.68-.69-1.85-1.63-3.35-2.82-4.49-1.18-1.14-2.54-1.97-4.09-2.48-1.53-.51-3.11-.77-4.77-.77-2.22,0-4.25.36-6.15,1.05-1.9.71-3.54,1.84-4.97,3.39-1.41,1.53-2.52,3.47-3.31,5.83-.78,2.38-1.17,5.17-1.17,8.4v28.83h-10.63v-56.01Z"/>
    <path class="cls-1" d="M3424.86,1972.29c0-2.13.77-3.96,2.32-5.51,1.53-1.53,3.36-2.3,5.49-2.3s3.97.77,5.51,2.3c1.51,1.55,2.28,3.38,2.28,5.51s-.76,3.95-2.28,5.48c-1.54,1.55-3.39,2.31-5.51,2.31s-3.96-.77-5.49-2.31c-1.54-1.53-2.32-3.35-2.32-5.48M3427.36,1992.38h10.63v56h-10.63v-56Z"/>
    <path class="cls-1" d="M3499.53,1999.22c2.99-2.75,6.46-4.83,10.41-6.21,3.93-1.38,7.87-2.06,11.8-2.06s7.62.51,10.58,1.53c2.96,1.02,5.37,2.4,7.28,4.13,1.89,1.74,3.28,3.72,4.19,5.97.91,2.24,1.36,4.59,1.36,7.02v28.59c0,1.99.03,3.79.12,5.44.08,1.65.2,3.23.36,4.73h-9.46c-.23-2.84-.36-5.68-.36-8.5h-.24c-2.34,3.62-5.15,6.17-8.38,7.67-3.23,1.5-6.98,2.25-11.23,2.25-2.6,0-5.08-.36-7.43-1.05-2.38-.71-4.43-1.79-6.22-3.2-1.77-1.41-3.16-3.16-4.19-5.26-1.02-2.09-1.54-4.51-1.54-7.26,0-3.62.81-6.65,2.42-9.1,1.62-2.45,3.83-4.44,6.62-5.97,2.81-1.53,6.07-2.64,9.82-3.3,3.74-.68,7.74-1,11.99-1h7.81v-2.38c0-1.41-.29-2.82-.84-4.25-.56-1.41-1.38-2.69-2.48-3.83-1.1-1.16-2.48-2.06-4.13-2.72-1.65-.66-3.63-1-5.9-1-2.06,0-3.86.19-5.39.6-1.54.39-2.93.87-4.2,1.46-1.26.59-2.38,1.29-3.42,2.07-1.02.78-2.01,1.53-2.96,2.24l-6.38-6.61ZM3529.55,2021.43c-2.52,0-5.11.14-7.74.41-2.64.29-5.06.82-7.22,1.6-2.16.8-3.93,1.89-5.31,3.3-1.38,1.43-2.08,3.23-2.08,5.44,0,3.23,1.1,5.54,3.26,6.97,2.16,1.41,5.1,2.13,8.81,2.13,2.89,0,5.39-.49,7.42-1.48,2.06-.99,3.71-2.26,4.97-3.84,1.25-1.56,2.16-3.32,2.72-5.25.55-1.92.84-3.84.84-5.73v-3.54h-5.68Z"/>
    <polygon class="cls-1" points="3684.23 1964.72 3701.11 1964.72 3727.71 2028.05 3728.17 2028.05 3754.53 1964.72 3771.42 1964.72 3771.42 2048.38 3760.08 2048.38 3760.08 1979.6 3759.84 1979.6 3731.58 2048.38 3724.04 2048.38 3695.8 1979.6 3695.57 1979.6 3695.57 2048.38 3684.23 2048.38 3684.23 1964.72"/>
    <path class="cls-1" d="M3841.83,2024.27c0,2.45.54,4.66,1.59,6.68,1.07,2.01,2.47,3.71,4.19,5.14,1.74,1.41,3.75,2.52,6.04,3.32,2.27.78,4.64,1.18,7.09,1.18,3.3,0,6.18-.77,8.63-2.31,2.42-1.53,4.68-3.56,6.73-6.07l8.02,6.14c-5.9,7.64-14.17,11.46-24.81,11.46-4.4,0-8.4-.75-11.99-2.25-3.59-1.5-6.61-3.57-9.09-6.21-2.48-2.63-4.39-5.75-5.72-9.34-1.35-3.57-2.02-7.45-2.02-11.63s.71-8.06,2.18-11.65c1.46-3.57,3.47-6.68,6.04-9.32,2.55-2.64,5.61-4.71,9.15-6.21,3.55-1.5,7.4-2.25,11.6-2.25,4.94,0,9.14.87,12.56,2.6,3.44,1.73,6.24,4,8.45,6.78,2.21,2.81,3.8,5.95,4.77,9.46.99,3.5,1.49,7.08,1.49,10.7v3.77h-44.9ZM3875.39,2015.76c-.09-2.36-.45-4.52-1.13-6.5-.66-1.97-1.66-3.69-3.01-5.15-1.35-1.44-3.01-2.58-5.02-3.42-2.01-.83-4.36-1.24-7.04-1.24s-4.98.49-7.14,1.48c-2.18.99-4,2.26-5.5,3.84-1.49,1.58-2.67,3.33-3.49,5.26-.83,1.92-1.24,3.84-1.24,5.73h33.56Z"/>
    <path class="cls-1" d="M3943.93,1992.37h10.63v8.62h.23c.71-1.5,1.65-2.86,2.84-4.08,1.18-1.21,2.5-2.26,3.94-3.13,1.46-.87,3.06-1.55,4.78-2.07,1.75-.49,3.47-.75,5.22-.75s3.3.22,4.71.7l-.46,11.46c-.89-.24-1.75-.44-2.61-.6-.86-.15-1.74-.24-2.6-.24-5.19,0-9.18,1.46-11.94,4.37-2.76,2.93-4.13,7.45-4.13,13.6v28.11h-10.63v-56.01Z"/>
    <path class="cls-1" d="M4070.01,2007.25c-1.98-2.04-4.05-3.6-6.21-4.66-2.16-1.07-4.76-1.6-7.74-1.6s-5.46.53-7.63,1.6c-2.17,1.05-3.97,2.52-5.43,4.37-1.46,1.85-2.55,3.98-3.3,6.38-.75,2.41-1.14,4.9-1.14,7.5s.44,5.07,1.3,7.38c.87,2.33,2.09,4.35,3.66,6.09,1.58,1.74,3.47,3.1,5.66,4.08,2.21.99,4.71,1.48,7.47,1.48,2.99,0,5.54-.53,7.66-1.6,2.13-1.07,4.1-2.62,5.92-4.68l7.55,7.57c-2.75,3.08-5.96,5.29-9.62,6.62-3.65,1.34-7.55,2.01-11.65,2.01-4.32,0-8.28-.71-11.87-2.13-3.57-1.41-6.67-3.4-9.27-5.97-2.59-2.55-4.61-5.63-6.04-9.22-1.41-3.57-2.13-7.53-2.13-11.87s.71-8.3,2.13-11.94c1.43-3.6,3.41-6.72,5.97-9.32,2.57-2.6,5.65-4.63,9.22-6.09,3.59-1.46,7.58-2.19,11.98-2.19,4.1,0,8.03.73,11.76,2.19,3.75,1.46,7,3.69,9.76,6.67l-8.02,7.33Z"/>
    <path class="cls-1" d="M4131.55,1999.22c2.99-2.75,6.46-4.83,10.41-6.21,3.93-1.38,7.87-2.06,11.8-2.06s7.62.51,10.58,1.53c2.96,1.02,5.37,2.4,7.28,4.13,1.89,1.74,3.28,3.72,4.19,5.97.91,2.24,1.36,4.59,1.36,7.02v28.59c0,1.99.03,3.79.12,5.44.08,1.65.2,3.23.36,4.73h-9.46c-.23-2.84-.36-5.68-.36-8.5h-.24c-2.34,3.62-5.15,6.17-8.38,7.67-3.23,1.5-6.98,2.25-11.23,2.25-2.6,0-5.08-.36-7.43-1.05-2.38-.71-4.43-1.79-6.22-3.2-1.77-1.41-3.16-3.16-4.19-5.26-1.02-2.09-1.54-4.51-1.54-7.26,0-3.62.81-6.65,2.42-9.1,1.62-2.45,3.83-4.44,6.62-5.97,2.81-1.53,6.07-2.64,9.82-3.3,3.74-.68,7.74-1,11.99-1h7.81v-2.38c0-1.41-.29-2.82-.84-4.25-.56-1.41-1.38-2.69-2.48-3.83-1.1-1.16-2.48-2.06-4.13-2.72-1.65-.66-3.63-1-5.9-1-2.06,0-3.86.19-5.39.6-1.54.39-2.93.87-4.2,1.46-1.26.59-2.38,1.29-3.42,2.07-1.02.78-2.01,1.53-2.96,2.24l-6.38-6.61ZM4161.57,2021.43c-2.52,0-5.11.14-7.74.41-2.64.29-5.06.82-7.22,1.6-2.16.8-3.93,1.89-5.31,3.3-1.38,1.43-2.08,3.23-2.08,5.44,0,3.23,1.1,5.54,3.26,6.97,2.16,1.41,5.1,2.13,8.81,2.13,2.89,0,5.39-.49,7.42-1.48,2.06-.99,3.71-2.26,4.97-3.84,1.25-1.56,2.16-3.32,2.72-5.25.55-1.92.84-3.84.84-5.73v-3.54h-5.68Z"/>
    <path class="cls-1" d="M4237.07,1992.37h10.63v8.62h.23c1.35-2.99,3.65-5.42,6.98-7.26,3.3-1.85,7.13-2.77,11.46-2.77,2.67,0,5.26.41,7.74,1.22,2.47.83,4.64,2.11,6.49,3.84,1.86,1.73,3.34,3.96,4.43,6.68,1.12,2.72,1.67,5.94,1.67,9.63v36.04h-10.65v-33.08c0-2.6-.36-4.83-1.08-6.68-.69-1.85-1.63-3.35-2.82-4.49-1.18-1.14-2.54-1.97-4.09-2.48-1.53-.51-3.11-.77-4.77-.77-2.22,0-4.25.36-6.15,1.05-1.9.71-3.54,1.84-4.97,3.39-1.41,1.53-2.52,3.47-3.31,5.83-.78,2.38-1.17,5.17-1.17,8.4v28.83h-10.63v-56.01Z"/>
    <path class="cls-1" d="M4377.2,2001.58h-15.25v25.41c0,1.57.02,3.13.11,4.68.08,1.53.39,2.91.9,4.13.5,1.21,1.3,2.19,2.37,2.94,1.05.75,2.6,1.12,4.66,1.12,1.26,0,2.57-.12,3.91-.36,1.33-.24,2.55-.66,3.66-1.29v9.7c-1.28.7-2.9,1.19-4.92,1.48-2.01.27-3.57.41-4.67.41-4.09,0-7.27-.58-9.52-1.72-2.23-1.14-3.89-2.62-4.97-4.42-1.05-1.82-1.69-3.84-1.88-6.09-.2-2.25-.29-4.51-.29-6.8v-29.19h-12.29v-9.22h12.29v-15.71h10.63v15.71h15.25v9.22Z"/>
    <path class="cls-1" d="M4433.67,1972.29c0-2.13.76-3.96,2.29-5.51,1.53-1.53,3.39-2.3,5.51-2.3s3.94.77,5.49,2.3c1.54,1.55,2.3,3.38,2.3,5.51s-.76,3.95-2.3,5.48c-1.54,1.55-3.36,2.31-5.49,2.31s-3.99-.77-5.51-2.31c-1.53-1.53-2.29-3.35-2.29-5.48M4436.16,1992.38h10.63v56h-10.63v-56Z"/>
    <rect class="cls-1" x="4508.93" y="1959.04" width="10.63" height="89.32"/>
    <path class="cls-1" d="M4588.91,2024.27c0,2.45.54,4.66,1.59,6.68,1.07,2.01,2.47,3.71,4.19,5.14,1.74,1.41,3.75,2.52,6.04,3.32,2.27.78,4.64,1.18,7.09,1.18,3.3,0,6.18-.77,8.63-2.31,2.42-1.53,4.68-3.56,6.73-6.07l8.02,6.14c-5.9,7.64-14.17,11.46-24.81,11.46-4.4,0-8.4-.75-11.99-2.25-3.59-1.5-6.61-3.57-9.09-6.21-2.48-2.63-4.39-5.75-5.72-9.34-1.35-3.57-2.02-7.45-2.02-11.63s.71-8.06,2.18-11.65c1.46-3.57,3.47-6.68,6.04-9.32,2.55-2.64,5.61-4.71,9.15-6.21,3.55-1.5,7.4-2.25,11.6-2.25,4.94,0,9.14.87,12.56,2.6,3.44,1.73,6.24,4,8.45,6.78,2.21,2.81,3.8,5.95,4.77,9.46.99,3.5,1.49,7.08,1.49,10.7v3.77h-44.9ZM4622.47,2015.76c-.09-2.36-.45-4.52-1.13-6.5-.66-1.97-1.66-3.69-3.01-5.15-1.35-1.44-3.01-2.58-5.02-3.42-2.01-.83-4.36-1.24-7.04-1.24s-4.98.49-7.14,1.48c-2.18.99-4,2.26-5.5,3.84-1.49,1.58-2.67,3.33-3.49,5.26-.83,1.92-1.24,3.84-1.24,5.73h33.56Z"/>
    <polygon class="cls-1" points="4771 1964.72 4825.01 1964.72 4825.01 1975.35 4782.34 1975.35 4782.34 2000.28 4822.06 2000.28 4822.06 2010.93 4782.34 2010.93 4782.34 2037.73 4827.14 2037.73 4827.14 2048.38 4771 2048.38 4771 1964.72"/>
    <polygon class="cls-1" points="4900.28 2018.48 4880.41 1992.37 4894.14 1992.37 4907.71 2012.22 4921.08 1992.37 4933.93 1992.37 4914.8 2018.48 4937.49 2048.38 4923.78 2048.38 4907.23 2024.86 4890.7 2048.38 4877.59 2048.38 4900.28 2018.48"/>
    <path class="cls-1" d="M5030.72,2007.25c-1.98-2.04-4.05-3.6-6.21-4.66-2.16-1.07-4.76-1.6-7.74-1.6s-5.46.53-7.63,1.6c-2.17,1.05-3.97,2.52-5.43,4.37-1.46,1.85-2.55,3.98-3.3,6.38-.75,2.41-1.14,4.9-1.14,7.5s.44,5.07,1.3,7.38c.87,2.33,2.09,4.35,3.66,6.09,1.58,1.74,3.47,3.1,5.66,4.08,2.21.99,4.71,1.48,7.47,1.48,2.99,0,5.54-.53,7.66-1.6,2.13-1.07,4.1-2.62,5.92-4.68l7.55,7.57c-2.75,3.08-5.96,5.29-9.62,6.62-3.65,1.34-7.55,2.01-11.65,2.01-4.32,0-8.28-.71-11.87-2.13-3.57-1.41-6.67-3.4-9.27-5.97-2.59-2.55-4.61-5.63-6.04-9.22-1.41-3.57-2.13-7.53-2.13-11.87s.71-8.3,2.13-11.94c1.43-3.6,3.41-6.72,5.97-9.32,2.57-2.6,5.65-4.63,9.22-6.09,3.59-1.46,7.58-2.19,11.98-2.19,4.1,0,8.03.73,11.76,2.19,3.75,1.46,7,3.69,9.76,6.67l-8.02,7.33Z"/>
    <path class="cls-1" d="M5092.04,1959.04h10.63v41.94h.23c1.35-2.98,3.65-5.41,6.98-7.26,3.3-1.84,7.13-2.77,11.46-2.77,2.67,0,5.26.41,7.74,1.24,2.47.83,4.64,2.11,6.49,3.84,1.86,1.74,3.34,3.95,4.43,6.67,1.12,2.72,1.67,5.94,1.67,9.63v36.04h-10.65v-33.08c0-2.6-.36-4.83-1.08-6.67-.69-1.85-1.63-3.35-2.82-4.51-1.18-1.14-2.54-1.96-4.09-2.47-1.53-.51-3.11-.78-4.77-.78-2.22,0-4.25.36-6.15,1.07-1.9.71-3.54,1.84-4.97,3.37-1.41,1.55-2.52,3.49-3.31,5.85-.78,2.36-1.17,5.15-1.17,8.38v28.83h-10.63v-89.32Z"/>
    <path class="cls-1" d="M5202.4,1999.22c2.99-2.75,6.46-4.83,10.41-6.21,3.93-1.38,7.87-2.06,11.8-2.06s7.62.51,10.58,1.53c2.96,1.02,5.37,2.4,7.28,4.13,1.89,1.74,3.28,3.72,4.19,5.97.91,2.24,1.36,4.59,1.36,7.02v28.59c0,1.99.03,3.79.12,5.44.08,1.65.2,3.23.36,4.73h-9.46c-.23-2.84-.36-5.68-.36-8.5h-.24c-2.34,3.62-5.15,6.17-8.38,7.67-3.23,1.5-6.98,2.25-11.23,2.25-2.6,0-5.08-.36-7.43-1.05-2.38-.71-4.43-1.79-6.22-3.2-1.77-1.41-3.16-3.16-4.19-5.26-1.02-2.09-1.54-4.51-1.54-7.26,0-3.62.81-6.65,2.42-9.1,1.62-2.45,3.83-4.44,6.62-5.97,2.81-1.53,6.07-2.64,9.82-3.3,3.74-.68,7.74-1,11.99-1h7.81v-2.38c0-1.41-.29-2.82-.84-4.25-.56-1.41-1.38-2.69-2.48-3.83-1.1-1.16-2.48-2.06-4.13-2.72-1.65-.66-3.63-1-5.9-1-2.06,0-3.86.19-5.39.6-1.54.39-2.93.87-4.2,1.46-1.26.59-2.38,1.29-3.42,2.07-1.02.78-2.01,1.53-2.96,2.24l-6.38-6.61ZM5232.42,2021.43c-2.52,0-5.11.14-7.74.41-2.64.29-5.06.82-7.22,1.6-2.16.8-3.93,1.89-5.31,3.3-1.38,1.43-2.08,3.23-2.08,5.44,0,3.23,1.1,5.54,3.26,6.97,2.16,1.41,5.1,2.13,8.81,2.13,2.89,0,5.39-.49,7.42-1.48,2.06-.99,3.71-2.26,4.97-3.84,1.25-1.56,2.16-3.32,2.72-5.25.55-1.92.84-3.84.84-5.73v-3.54h-5.68Z"/>
    <path class="cls-1" d="M5307.92,1992.37h10.63v8.62h.23c1.35-2.99,3.65-5.42,6.98-7.26,3.3-1.85,7.13-2.77,11.46-2.77,2.67,0,5.26.41,7.74,1.22,2.47.83,4.64,2.11,6.49,3.84,1.86,1.73,3.34,3.96,4.43,6.68,1.12,2.72,1.67,5.94,1.67,9.63v36.04h-10.65v-33.08c0-2.6-.36-4.83-1.08-6.68-.69-1.85-1.63-3.35-2.82-4.49-1.18-1.14-2.54-1.97-4.09-2.48-1.53-.51-3.11-.77-4.77-.77-2.22,0-4.25.36-6.15,1.05-1.9.71-3.54,1.84-4.97,3.39-1.41,1.53-2.52,3.47-3.31,5.83-.78,2.38-1.17,5.17-1.17,8.4v28.83h-10.63v-56.01Z"/>
    <path class="cls-1" d="M5474.17,2047.9c0,4.25-.74,8.13-2.2,11.65-1.44,3.5-3.52,6.53-6.19,9.08-2.67,2.57-5.92,4.56-9.69,5.97-3.78,1.41-7.96,2.13-12.54,2.13-5.34,0-10.24-.73-14.69-2.23-4.46-1.51-8.69-4.12-12.71-7.81l7.21-8.98c2.76,2.99,5.75,5.25,8.99,6.79,3.21,1.55,6.88,2.31,10.99,2.31s7.19-.58,9.81-1.72c2.59-1.14,4.66-2.62,6.19-4.42,1.54-1.82,2.62-3.89,3.25-6.21.63-2.33.95-4.68.95-7.04v-8.26h-.38c-2.03,3.38-4.81,5.88-8.31,7.5-3.5,1.62-7.19,2.42-11.04,2.42-4.1,0-7.91-.71-11.41-2.18-3.5-1.44-6.52-3.47-9.04-6.02-2.53-2.57-4.49-5.59-5.92-9.1-1.41-3.5-2.13-7.31-2.13-11.41s.66-7.93,2.01-11.51c1.35-3.59,3.26-6.72,5.73-9.39,2.5-2.69,5.48-4.76,8.99-6.28,3.5-1.5,7.43-2.23,11.77-2.23,3.78,0,7.45.82,11.04,2.48,3.59,1.65,6.39,3.96,8.45,6.95h.24v-8.03h10.63v55.53ZM5445.11,2000.87c-2.85,0-5.4.49-7.67,1.48-2.3.99-4.22,2.33-5.8,4.02-1.58,1.7-2.78,3.74-3.67,6.16-.86,2.4-1.3,5-1.3,7.84,0,5.68,1.67,10.24,4.97,13.66,3.31,3.42,7.79,5.14,13.48,5.14s10.16-1.72,13.47-5.14c3.3-3.42,4.97-7.98,4.97-13.66,0-2.84-.43-5.44-1.3-7.84-.89-2.41-2.09-4.46-3.67-6.16-1.59-1.68-3.5-3.03-5.8-4.02-2.28-.99-4.82-1.48-7.66-1.48"/>
    <path class="cls-1" d="M5542.71,2024.27c0,2.45.54,4.66,1.59,6.68,1.07,2.01,2.47,3.71,4.19,5.14,1.74,1.41,3.75,2.52,6.04,3.32,2.27.78,4.64,1.18,7.09,1.18,3.3,0,6.18-.77,8.63-2.31,2.42-1.53,4.68-3.56,6.73-6.07l8.02,6.14c-5.9,7.64-14.17,11.46-24.81,11.46-4.4,0-8.4-.75-11.99-2.25-3.59-1.5-6.61-3.57-9.09-6.21-2.48-2.63-4.39-5.75-5.72-9.34-1.35-3.57-2.02-7.45-2.02-11.63s.71-8.06,2.18-11.65c1.46-3.57,3.47-6.68,6.04-9.32,2.55-2.64,5.61-4.71,9.15-6.21,3.55-1.5,7.4-2.25,11.6-2.25,4.94,0,9.14.87,12.56,2.6,3.44,1.73,6.24,4,8.45,6.78,2.21,2.81,3.8,5.95,4.77,9.46.99,3.5,1.49,7.08,1.49,10.7v3.77h-44.9ZM5576.26,2015.76c-.09-2.36-.45-4.52-1.13-6.5-.66-1.97-1.66-3.69-3.01-5.15-1.35-1.44-3.01-2.58-5.02-3.42-2.01-.83-4.36-1.24-7.04-1.24s-4.98.49-7.14,1.48c-2.18.99-4,2.26-5.5,3.84-1.49,1.58-2.67,3.33-3.49,5.26-.83,1.92-1.24,3.84-1.24,5.73h33.56Z"/>
    <path class="cls-1" d="M6262.69,1513.2h91.18c16.6,0,30.27,2.26,41.01,6.77,10.74,4.52,19.22,10.26,25.44,17.21,6.23,6.96,10.56,14.78,13.01,23.44,2.43,8.67,3.65,17.04,3.65,25.09s-1.22,16.43-3.65,25.1c-2.45,8.66-6.78,16.46-13.01,23.42-6.22,6.97-14.71,12.7-25.44,17.23-10.75,4.51-24.41,6.77-41.01,6.77h-56.04v114.25h-35.14v-259.27ZM6297.84,1627.46h46.15c6.82,0,13.6-.54,20.32-1.65,6.72-1.11,12.69-3.11,17.95-6.04,5.24-2.94,9.45-7.14,12.63-12.64,3.18-5.49,4.75-12.64,4.75-21.43s-1.57-15.94-4.75-21.41c-3.18-5.51-7.39-9.71-12.63-12.65-5.26-2.91-11.23-4.93-17.95-6.02-6.72-1.11-13.5-1.67-20.32-1.67h-46.15v83.5Z"/>
    <polygon class="cls-1" points="6479.85 1513.2 6514.98 1513.2 6514.98 1739.53 6634.02 1739.53 6634.02 1772.49 6479.85 1772.49 6479.85 1513.2"/>
    <path class="cls-1" d="M6850.45,1569.23c-7.33-9.52-16.6-16.84-27.83-21.97-11.24-5.12-22.84-7.69-34.79-7.69-14.65,0-27.89,2.74-39.74,8.23-11.84,5.49-21.97,13.01-30.39,22.53-8.42,9.52-14.95,20.68-19.59,33.5-4.63,12.82-6.96,26.55-6.96,41.21,0,13.68,2.21,26.6,6.6,38.81,4.38,12.21,10.73,22.96,19.04,32.23,8.3,9.29,18.44,16.6,30.39,21.97,11.96,5.37,25.51,8.06,40.65,8.06s27.96-3.06,39.18-9.17c11.23-6.09,20.75-14.64,28.57-25.63l29.66,22.33c-1.96,2.7-5.37,6.55-10.26,11.55-4.9,5-11.36,10.02-19.41,15.02-8.06,5-17.75,9.4-29.11,13.18-11.36,3.79-24.49,5.68-39.37,5.68-20.51,0-39.01-3.91-55.48-11.72-16.48-7.82-30.53-18.08-42.13-30.77-11.6-12.69-20.44-27.04-26.53-43.03-6.12-15.99-9.17-32.18-9.17-48.52,0-20.02,3.31-38.52,9.9-55.49,6.59-16.96,15.79-31.62,27.65-43.95,11.83-12.33,26.06-21.9,42.64-28.74,16.62-6.84,34.91-10.25,54.95-10.25,17.09,0,33.88,3.3,50.36,9.88,16.46,6.6,29.95,16.74,40.46,30.41l-29.3,22.33Z"/>
    <path class="cls-2" d="M1564.68,216.94c197.6,176.55,324.94,465.21,324.94,804.9,0,550.64-415.74,997-864.4,997-477.4,0-864.42-446.37-864.42-997S615.93,31.51,1093.34,31.51c86.31,0,169.21,16.19,246.76,46.33C1226.26,27.72,1101.59.01,970.83.01,434.65.01,0,464.9,0,1038.38s434.65,1038.35,970.83,1038.35c583.87,0,970.82-464.89,970.82-1038.35,0-334.22-147.67-631.5-376.97-821.44"/>
    <path class="cls-3" d="M1025.21,2018.84c-477.41,0-864.42-446.37-864.42-997S615.94,31.51,1093.34,31.51c86.32,0,169.22,16.19,246.77,46.33C1226.26,27.72,1101.58,0,970.83,0,434.65,0,0,464.9,0,1038.37c0,1010.02,1025.21,980.47,1025.21,980.47"/>
    <path class="cls-3" d="M960.62,418.49h25.66c17.48,0,31.65-14.16,31.65-31.65s-14.17-31.65-31.65-31.65h-25.66c-17.49,0-31.66,14.17-31.66,31.65s14.17,31.65,31.66,31.65"/>
    <path class="cls-3" d="M1070.96,418.49h25.66c17.48,0,31.65-14.16,31.65-31.65s-14.17-31.65-31.65-31.65h-25.66c-17.49,0-31.66,14.17-31.66,31.65s14.17,31.65,31.66,31.65"/>
    <path class="cls-3" d="M859.99,522.03h18.26c20.48,0,37.1-16.61,37.1-37.09s-16.62-37.11-37.1-37.11h-18.26c-20.49,0-37.1,16.61-37.1,37.11s16.6,37.09,37.1,37.09"/>
    <path class="cls-3" d="M964.31,522.03h18.26c20.49,0,37.1-16.61,37.1-37.09s-16.6-37.11-37.1-37.11h-18.26c-20.49,0-37.1,16.61-37.1,37.11s16.6,37.09,37.1,37.09"/>
    <path class="cls-3" d="M1074.67,522.03h18.26c20.48,0,37.1-16.61,37.1-37.09s-16.62-37.11-37.1-37.11h-18.26c-20.49,0-37.1,16.61-37.1,37.11s16.6,37.09,37.1,37.09"/>
    <path class="cls-3" d="M1179.88,522.03h18.26c20.49,0,37.1-16.61,37.1-37.09s-16.6-37.11-37.1-37.11h-18.26c-20.49,0-37.1,16.61-37.1,37.11s16.6,37.09,37.1,37.09"/>
    <path class="cls-3" d="M806.59,639.08h28.5c23.14,0,41.9-18.76,41.9-41.9s-18.76-41.89-41.9-41.89h-28.5c-23.15,0-41.91,18.76-41.91,41.89s18.76,41.9,41.91,41.9"/>
    <path class="cls-3" d="M905.62,597.18c0,23.15,18.75,41.91,41.9,41.91h28.5c23.14,0,41.9-18.76,41.9-41.91s-18.77-41.9-41.9-41.9h-28.5c-23.15,0-41.9,18.76-41.9,41.9"/>
    <path class="cls-3" d="M1081.22,555.28c-23.15,0-41.91,18.76-41.91,41.91s18.76,41.89,41.91,41.89h28.5c23.14,0,41.9-18.76,41.9-41.89s-18.76-41.91-41.9-41.91h-28.5Z"/>
    <path class="cls-2" d="M1180.89,597.18h0c0,23.15,18.75,41.91,41.9,41.91h28.5c23.14,0,41.9-18.76,41.9-41.91s-18.77-41.9-41.9-41.9h-28.5c-23.15,0-41.9,18.76-41.9,41.9"/>
    <path class="cls-3" d="M774.59,772.19h32.1c26.08,0,47.21-21.12,47.21-47.19s-21.13-47.21-47.21-47.21h-32.1c-26.08,0-47.2,21.14-47.2,47.21s21.13,47.19,47.2,47.19"/>
    <path class="cls-3" d="M938.62,772.19h32.1c26.08,0,47.19-21.12,47.19-47.19s-21.12-47.21-47.19-47.21h-32.1c-26.08,0-47.2,21.14-47.2,47.21s21.13,47.19,47.2,47.19"/>
    <path class="cls-3" d="M1118.62,772.19c26.07,0,47.19-21.12,47.19-47.19s-21.13-47.21-47.19-47.21h-32.11c-26.06,0-47.19,21.14-47.19,47.21s21.13,47.19,47.19,47.19h32.11Z"/>
    <path class="cls-2" d="M1247.18,677.79c-26.08,0-47.2,21.14-47.2,47.2s21.13,47.21,47.2,47.21h32.1c26.08,0,47.19-21.14,47.19-47.21s-21.12-47.2-47.19-47.2h-32.1Z"/>
    <path class="cls-3" d="M769.06,903.53h34.35c27.88,0,50.48-22.6,50.48-50.49s-22.6-50.47-50.48-50.47h-34.35c-27.89,0-50.5,22.6-50.5,50.47s22.6,50.49,50.5,50.49"/>
    <path class="cls-3" d="M1022.33,853.04c0-27.89-22.6-50.49-50.5-50.49h-34.34c-27.89,0-50.49,22.6-50.49,50.49s22.6,50.5,50.49,50.5h34.34c27.89,0,50.5-22.6,50.5-50.5"/>
    <path class="cls-3" d="M1039.32,853.04c0,27.89,22.6,50.5,50.49,50.5h34.34c27.89,0,50.49-22.6,50.49-50.5s-22.6-50.49-50.49-50.49h-34.34c-27.89,0-50.49,22.6-50.49,50.49"/>
    <path class="cls-2" d="M1284.82,802.55h-34.35c-27.88,0-50.48,22.6-50.48,50.5s22.6,50.47,50.48,50.47h34.35c27.89,0,50.49-22.6,50.49-50.47s-22.6-50.5-50.49-50.5"/>
    <path class="cls-2" d="M769.06,1025.18h34.35c27.88,0,50.48-22.6,50.48-50.49s-22.6-50.47-50.48-50.47h-34.35c-27.89,0-50.5,22.6-50.5,50.47s22.6,50.49,50.5,50.49"/>
    <path class="cls-3" d="M971.85,924.2h-34.35c-27.88,0-50.48,22.6-50.48,50.5s22.6,50.47,50.48,50.47h34.35c27.89,0,50.49-22.6,50.49-50.47s-22.6-50.5-50.49-50.5"/>
    <path class="cls-3" d="M1089.81,1025.18h34.35c27.88,0,50.48-22.6,50.48-50.49s-22.6-50.47-50.48-50.47h-34.35c-27.89,0-50.5,22.6-50.5,50.47s22.6,50.49,50.5,50.49"/>
    <path class="cls-2" d="M1291.67,924.2h-34.35c-27.88,0-50.48,22.6-50.48,50.5s22.6,50.47,50.48,50.47h34.35c27.87,0,50.49-22.6,50.49-50.47s-22.62-50.5-50.49-50.5"/>
    <path class="cls-2" d="M774.59,1146.83h32.1c26.08,0,47.21-21.14,47.21-47.19s-21.13-47.21-47.21-47.21h-32.1c-19.5,0-36.21,11.82-43.42,28.67,8.52,20.19,19.44,41.86,33.38,64.64,3.25.7,6.59,1.09,10.04,1.09"/>
    <path class="cls-3" d="M1017.93,1099.63c0-26.07-21.13-47.19-47.2-47.19h-32.1c-26.08,0-47.2,21.12-47.2,47.19s21.13,47.2,47.2,47.2h32.1c26.08,0,47.2-21.12,47.2-47.2"/>
    <path class="cls-2" d="M1133.69,1052.43h-32.11c-26.08,0-47.21,21.13-47.21,47.2s21.13,47.21,47.21,47.21h32.11c26.07,0,47.19-21.14,47.19-47.21s-21.13-47.2-47.19-47.2"/>
    <path class="cls-2" d="M1290.55,1052.43h-32.11c-26.08,0-47.21,21.13-47.21,47.2s21.13,47.21,47.21,47.21h32.11c2.82,0,5.56-.3,8.23-.76,14.46-23.59,25.66-45.95,34.32-66.77-7.61-15.88-23.78-26.87-42.55-26.87"/>
    <path class="cls-2" d="M843.23,1248.64c3.96-6.9,6.25-14.9,6.25-23.43,0-26.05-21.13-47.19-47.19-47.19h-16.43c10.9,15.34,23.18,31.1,37.02,47.19,6.98,8.11,13.71,15.87,20.35,23.43"/>
    <path class="cls-2" d="M968.12,1178.01h-43.93c-26.08,0-47.2,21.14-47.2,47.2s21.13,47.21,47.2,47.21h43.93c26.07,0,47.19-21.14,47.19-47.21s-21.13-47.2-47.19-47.2"/>
    <path class="cls-2" d="M1095.67,1272.41h43.92c26.06,0,47.2-21.12,47.2-47.19s-21.14-47.21-47.2-47.21h-43.92c-26.08,0-47.2,21.14-47.2,47.21s21.13,47.19,47.2,47.19"/>
    <path class="cls-2" d="M1277.67,1178.01h-19.22c-26.07,0-47.21,21.14-47.21,47.2,0,9.34,2.74,18.01,7.42,25.32,7.14-8.15,14.44-16.53,22.01-25.32,13.84-16.09,26.11-31.86,37.01-47.2"/>
    <path class="cls-2" d="M978.72,1392.82c20.95-4.81,36.6-23.55,36.6-45.97,0-26.05-21.13-47.19-47.19-47.19h-43.93c-10.21,0-19.63,3.28-27.35,8.79,33.3,36.14,60.53,63.74,81.88,84.37"/>
    <path class="cls-2" d="M1166.8,1308.34c-7.71-5.44-17.07-8.67-27.21-8.67h-43.93c-26.06,0-47.19,21.12-47.19,47.19,0,22.35,15.54,41.02,36.39,45.92,21.37-20.64,48.62-48.26,81.95-84.44"/>
    <path class="cls-1" d="M1034.81,1768.62h74.04v-279.73s30.78,38.5,85.57,33.37c54.78-5.14,154.87-89.81,221.6-272.03,66.72-182.21-2.57-384.94-43.64-428.58,0,0,17.98,38.5,15.41,112.93-.12,3.28-.37,6.9-.68,10.66-6.82,81.63-61.78,273.4-200.56,423.03-145.21,156.55-124.85,136.02-151.13,156.55h-7.31c-26.24-20.53-5.9,0-151.11-156.55-138.81-149.63-193.75-341.4-200.56-423.03-.32-3.76-.56-7.38-.68-10.66-2.57-74.43,15.4-112.93,15.4-112.93-41.06,43.64-110.35,246.37-43.63,428.58,66.72,182.22,166.82,266.89,221.59,272.03,54.79,5.14,85.56-33.37,85.56-33.37v279.73h80.14Z"/>
    <path class="cls-2" d="M1034.81,168.68c-7.74,0-15.43.19-23.12.46,403.67,14.06,727.1,391.47,727.1,855.03s-335.99,855.49-750.47,855.49c-156.51,0-301.83-54.66-422.1-148.1,128.42,120.19,291.3,192.11,468.58,192.11,414.47,0,750.47-392.88,750.47-877.49S1449.28,168.68,1034.81,168.68"/>
  </g>
</svg>